<svg height="512" width="512" xmlns="http://www.w3.org/2000/svg" stroke="#fff" fill="#fff"><path d="M256 7C118.467 7 7 118.468 7 256.002 7 393.533 118.467 505 256 505s249-111.467 249-248.998C505 118.468 393.533 7 256 7zm0 478.08c-126.31 0-229.08-102.771-229.08-229.078C26.92 129.692 129.69 26.92 256 26.92c126.309 0 229.08 102.771 229.08 229.082 0 126.307-102.771 229.078-229.08 229.078z" /><path d="M368.545 157.073l-14.084-14.085-98.598 98.599-98.13-98.131-14.085 14.084 98.132 98.132-98.132 98.137 14.085 14.084 98.13-98.143 98.598 98.611 14.084-14.086-98.598-98.603z"/></svg>