<svg height="91" width="91" xmlns="http://www.w3.org/2000/svg"><path d="M69.495 46.451a8.11 8.11 0 0 0-3.6.849c-1.125-3.159-4.141-5.43-7.684-5.43a8.118 8.118 0 0 0-5.637 2.277 8.129 8.129 0 0 0-8.77-1.652V28.093c0-4.496-3.658-8.154-8.154-8.154s-8.152 3.658-8.152 8.154V51.408c-3.672.189-9.113 1.393-9.113 9.088 0 5.744 6.875 18.291 13.881 19.889 4.561 6.289 11.963 10.391 20.305 10.391 14.066 0 25.084-10.57 25.084-24.064a2.513 2.513 0 0 0-5.026 0c0 10.676-8.811 19.039-20.059 19.039-6.951 0-13.084-3.561-16.682-8.951-.041-.07-.078-.143-.127-.209A19.913 19.913 0 0 1 32.523 65.7V28.092a3.131 3.131 0 0 1 3.127-3.129 3.132 3.132 0 0 1 3.129 3.129v30.701a2.513 2.513 0 0 0 5.026 0v-8.771a3.13 3.13 0 0 1 6.26-.023l-.002.023v8.771c0 .133.014.225.033.297a2.503 2.503 0 0 0 2.482 2.215c1.299 0 2.357-.99 2.486-2.258.01-.047.014-.105.018-.172 0-.027.008-.055.008-.082v-8.771-.023a3.127 3.127 0 0 1 3.121-3.104 3.134 3.134 0 0 1 3.135 3.127v4.516l-.002.068v4.188c0 .145.014.254.037.348a2.506 2.506 0 0 0 2.479 2.164 2.501 2.501 0 0 0 2.482-2.223 1.21 1.21 0 0 0 .021-.213c.002-.025.008-.051.008-.076v-4.223a3.132 3.132 0 0 1 3.123-3.096 3.136 3.136 0 0 1 3.135 3.131v2.082a2.513 2.513 0 1 0 5.026 0v-2.082c0-4.498-3.66-8.155-8.16-8.155zM23.411 60.495c0-2.543.41-3.771 4.088-4.043v9.246c0 1.779.189 3.516.543 5.191-2.484-3.318-4.631-7.66-4.631-10.394z"/><path d="M45.091 34.222a2.509 2.509 0 0 0 .096 3.55 2.507 2.507 0 0 0 3.551-.096 17.568 17.568 0 0 0 4.775-11.013 17.467 17.467 0 0 0-4.375-12.725 17.467 17.467 0 0 0-12.098-5.9c-9.666-.586-18.029 6.801-18.619 16.477a17.468 17.468 0 0 0 4.381 12.724 2.513 2.513 0 0 0 3.764-3.329 12.477 12.477 0 0 1-3.129-9.09c.422-6.91 6.389-12.186 13.299-11.766a12.479 12.479 0 0 1 8.639 4.213 12.48 12.48 0 0 1 3.125 9.092 12.557 12.557 0 0 1-3.409 7.863z"/><path d="M54.681 38.311a2.514 2.514 0 0 0 3.396-1.045 24.852 24.852 0 0 0 2.846-10.154c.838-13.76-9.672-25.639-23.43-26.479-6.67-.406-13.09 1.805-18.09 6.23-5 4.424-7.979 10.531-8.385 17.195-.547 8.951 3.779 17.56 11.293 22.472a2.508 2.508 0 0 0 3.478-.729 2.514 2.514 0 0 0-.729-3.478c-6.006-3.926-9.465-10.806-9.027-17.958a19.83 19.83 0 0 1 6.699-13.738c3.996-3.537 9.133-5.299 14.453-4.979C48.179 6.32 56.576 15.81 55.906 26.8a19.86 19.86 0 0 1-2.271 8.113 2.515 2.515 0 0 0 1.046 3.398z"/></svg>